<svg width="22" height="24" viewBox="0 0 22 24" xmlns="http://www.w3.org/2000/svg"><title>Shape</title><path d="M8.772 23a.594.594 0 0 1-.423-.183.608.608 0 0 1-.18-.421c0-.33.276-.595.629-.604.288-.008.576-.012.864-.012l.36-.003c.12 0 .239.003.356.012l.18.015v-.686c.002-.459.007-.916.019-1.376 0-.055.02-.114.041-.174l.053-.157-.165-.045c-.564-.155-1.118-.39-1.653-.62l-.131-.055a6.288 6.288 0 0 1-.999-.522c-.338-.22-.666-.452-.995-.683-.398-.28-.78-.563-1.08-.954-.206-.265-.367-.569-.523-.864l-.15-.282c-.176-.329-.36-.669-.5-1.015a6.035 6.035 0 0 1-.21-.612 4.29 4.29 0 0 1-.106-.594l-.01-.08c-.054-.404-.085-.81-.115-1.217-.024-.334-.05-.668-.087-1l-.061-.38a.849.849 0 0 1 .004-.385l.04-.138-.138-.052a22.197 22.197 0 0 1-.601-.241c-.15-.062-.71-.308-.71-.308-.208-.091-.4-.205-.594-.32l-.143-.084a2.242 2.242 0 0 1-.498-.364c-.26-.254-.32-.637-.15-.932.109-.19.308-.357.484-.504.423-.35.9-.668 1.362-.974l.156-.104a34.185 34.185 0 0 1 1.684-1.056.602.602 0 0 1 .183-.068l.088-.018.068-.194c.368-.766.847-1.635 1.606-2.27.268-.224.582-.477.919-.63.248-.114.5-.223.758-.316a9.807 9.807 0 0 1 1.31-.387A6.064 6.064 0 0 1 10.98 1c.423 0 .82.056 1.181.166.447.134.851.309 1.205.518.177.106.35.219.52.338.26.18.466.322.619.489.351.383.64.815.856 1.285.171.372.337.751.484 1.131.113.293.252.682.336 1.094.07.338.117.68.163 1.022l.025.18c.05.364.095.729.14 1.094l.098.77c.084.518.167.91.267 1.276.098.359.196.71.334 1.053.108.218.249.487.432.742.121.139.238.257.37.368l.177.121c.096.065.193.13.287.198.106.076.166.118.22.167.029.038.073.093.116.152.074.101.1.308.057.445a.945.945 0 0 1-.19.33l-.121.143.164.094c.275.157.55.312.838.447.198.071.38.126.573.164.19.038.336.066.484.13.169.073.316.24.36.406.125.492-.24 1.03-.469 1.304-.197.239-.448.472-.812.758-.354.277-.74.564-1.172.795-.357.189-.724.355-1.092.519l-.264.118c-.325.144-.65.291-.987.41-.81.29-1.71.36-2.484.387l-.141.007c-.29.011-.58.023-.87.023l-.214-.002c-.16-.004-.32-.019-.478-.033l-.175-.017-.035.167-.009.258c-.012.343-.024.685-.028 1.027-.003.35-.007.667.025.977l.032.238c.016.13-.08.301-.178.397a.62.62 0 0 1-.427.17l-.203-.044-.134.118a.57.57 0 0 1-.29.075.959.959 0 0 1-.155-.014l-.157-.004c-.145 0-.29.005-.435.01L8.772 23zM5.74 5.732l-.033.078a.645.645 0 0 1-.264.318c-.869.506-1.787 1.05-2.637 1.672l-.296.232.214.114c.262.14.535.262.81.377l.451.186c.324.124.59.204.858.285.336.101.53.427.44.742a.596.596 0 0 1-.087.157l-.046.069.031.076c.108.594.166 1.107.199 1.63.024.385.053.769.098 1.152.028.192.056.381.111.563.057.188.122.368.194.547.15.3.306.584.461.867l.112.203c.141.257.283.515.452.756.164.18.337.334.573.517.442.323.86.627 1.299.887.384.228.8.405 1.204.576.443.177.778.292 1.1.38.35.095.705.152.977.192.376.03.742.042 1.11.042.528 0 1.068-.028 1.603-.083.253-.039.496-.08.737-.135.298-.064.575-.172.82-.267l.203-.083c.73-.3 1.553-.679 2.291-1.21.24-.183.48-.37.699-.574l.192-.18-.253-.085a5.123 5.123 0 0 1-.501-.198c-.26-.117-.508-.25-.757-.383a15.83 15.83 0 0 1-.2-.107c-.115-.062-.212-.154-.313-.236l-.1.079-.075.056c-.083.063-.165.126-.251.185-.75.518-1.513.854-2.27.998-.418.081-.861.122-1.352.125-.198 0-.396-.006-.594-.02a4.305 4.305 0 0 1-.681-.096c-.428-.11-.858-.29-1.261-.463a24.58 24.58 0 0 1-.94-.43c-.755-.365-1.429-1.04-1.894-1.901-.183-.339-.08-.73.242-.913a.694.694 0 0 1 .344-.086c.26 0 .486.122.59.317.112.209.233.41.373.601.19.215.388.428.616.617.277.184.563.324.84.46.375.183.709.334 1.047.478.139.056.277.108.417.14.143.034.285.062.428.085.27.024.527.037.784.037.209 0 .416-.008.626-.026a6.244 6.244 0 0 0 1.118-.28c.591-.248 1.065-.578 1.502-.901l.381-.28-.307-.218a2.94 2.94 0 0 1-.639-.668c-.32-.454-.568-.991-.757-1.644-.141-.49-.256-1.018-.36-1.662a28.5 28.5 0 0 1-.149-1.147l-.07-.58-.03-.216c-.065-.471-.132-.96-.254-1.435-.122-.485-.326-.955-.523-1.407a5.921 5.921 0 0 0-.627-1.1 3.442 3.442 0 0 0-.4-.38 7.227 7.227 0 0 0-1.114-.649 5.375 5.375 0 0 0-.818-.231 4.078 4.078 0 0 0-.437-.026c-.173 0-.323.014-.473.03-.346.049-.706.11-1.054.224-.311.1-.618.213-.922.332a5.016 5.016 0 0 0-.668.363c-.26.21-.481.413-.689.636a5.617 5.617 0 0 0-.464.696c-.165.303-.316.61-.462.92-.062.133-.249.245-.405.28l-.12.023zm3.632.02a.546.546 0 0 1-.548-.53c0-.288.251-.53.548-.53.297 0 .548.243.548.53 0 .288-.25.53-.548.53z" fill="#EA612D" fill-rule="nonzero" stroke="#EA612D" stroke-width=".55"/></svg>